# xmcd
#
# Track frame offsets:
#	150
#	19529
#	39481
#	56381
#	76920
#	104135
#	121711
#	140982
#	163571
#	190406
#
# Disc length: 2743 seconds
#
# Revision: 1
# Processed by: cddbd v1.5.2PL0 Copyright (c) Steve Scherf et al.
# Submitted via: audiograbber 1.83.01
#
DISCID=810ab50a
DTITLE=Kent Kimbrough - Super Funky
DYEAR=2010
DGENRE=Blues
TTITLE0=You And I Belongs Together
TTITLE1=Lay It On You Lady
TTITLE2=Havin Fun
TTITLE3=Mystery Lady
TTITLE4=Honestly
TTITLE5=Lady
TTITLE6=Let Me Go
TTITLE7=Leave Walkin
TTITLE8=Life I Lived
TTITLE9=Sittin In The Moonlight
EXTD=Hill Country Records, Oxford, MS
EXTT0=
EXTT1=
EXTT2=
EXTT3=
EXTT4=
EXTT5=
EXTT6=
EXTT7=
EXTT8=
EXTT9=
PLAYORDER=
